<?xml version="1.0" encoding="UTF-8" standalone="no" ?>
<!DOCTYPE svg PUBLIC "-//W3C//DTD SVG 1.1//EN" "http://www.w3.org/Graphics/SVG/1.1/DTD/svg11.dtd">
<svg xmlns="http://www.w3.org/2000/svg" xmlns:xlink="http://www.w3.org/1999/xlink" version="1.1" width="117.6388" height="60.640600000000006" xml:space="preserve">
<desc>Created with Fabric.js 1.6.0-rc.1</desc>
<defs></defs>
<g style="stroke: none; stroke-width: 1; stroke-dasharray: none; stroke-linecap: butt; stroke-linejoin: miter; stroke-miterlimit: 10; fill: none; fill-rule: nonzero; opacity: 1;" transform="translate(10 10) scale(0.14 0.14)" >
  <path d="M 420.24 286.981 a 38.17 38.17 0 0 1 -6.98 0.023 c -14.063 -1.215 -25.034 -9.406 -26.213 -10.315 c -9.765 -5.836 -20.532 -9.299 -31.998 -10.29 c -14.096 -1.218 -26.82 1.549 -35.012 4.088 c -1.209 0.374 -2.359 0.755 -3.444 1.133 c 5.113 -0.558 10.169 -0.628 15.131 -0.198 c 12.154 1.049 21.604 4.926 27.397 7.993 c 5.701 3.021 9.021 5.827 9.703 6.425 c 6.673 4.029 13.856 6.402 21.351 7.049 c 12.104 1.048 22.935 -2.567 30.065 -5.908 z" style="stroke: none; stroke-width: 1; stroke-dasharray: none; stroke-linecap: butt; stroke-linejoin: miter; stroke-miterlimit: 10; fill: #ec3b10; fill-rule: nonzero; opacity: 1;" transform=" matrix(0.9999996197549209 0 0 0.9999996197549209 -56.62897846710141 -164.74493735652445) " stroke-linecap="round" />
  <path d="M 651.072 248.87 s -55.768 -97.308 -136.629 -82.614 c 0 0 -132.553 24.563 -157.024 0 c 0 0 10.196 44.658 107.062 41.308 c 0 0 27.529 -2.234 24.471 25.677 c 0 0 -7.138 31.258 -43.844 15.629 c 0 0 -66.275 -60.375 -134.591 -39.119 c 0 0 19.372 5.627 24.471 17.907 c 0 0 -101.961 -20.094 -128.474 50.238 c 0 0 55.061 -11.164 59.14 26.793 c 0 0 7.138 39.073 -47.923 21.211 c 0 0 -92.786 -66.983 -161.102 10.049 c 0 0 47.923 -8.932 92.786 37.957 c 0 0 60.159 49.121 117.257 16.746 c 0 0 28.551 -13.397 48.942 -36.843 c 0 0 49.96 -48.004 66.276 2.233 c 0 0 8.157 41.308 -46.903 21.212 c 0 0 39.765 65.867 119.298 41.306 c 0 0 27.528 -5.581 55.058 -31.258 c 0 0 12.236 -18.979 34.669 -7.814 c 0 0 17.335 11.164 5.099 32.375 c 0 0 -17.333 18.979 -38.747 1.116 c 0 0 27.53 35.725 67.298 -2.233 c 0 0 28.547 -17.863 45.881 -69.215 c 0 0 17.336 -51.355 54.042 -53.587 l -26.513 -39.074 z m -319.879 73.497 a 45.582 45.582 0 0 0 -4.061 -0.186 c -21.562 0 -30.366 16.465 -30.452 16.631 l -0.094 0.179 l -0.127 0.159 c -5.915 7.195 -13.612 10.85 -22.875 10.85 h -0.001 c -10.021 0 -18.14 -4.371 -18.482 -4.559 l -14.535 -7.932 l 16.005 4.228 c 1.468 0.404 2.43 0.419 4.43 0.419 v 0.015 c 11 0 17.617 -10.844 17.682 -10.954 l 0.051 -0.029 l 0.078 -0.061 c 8.526 -10.23 20.445 -15.615 34.481 -15.615 c 10.518 0 18.437 3.005 18.769 3.131 l 12.897 4.959 l -13.766 -1.235 z m 36.176 -30.497 l -0.173 -0.105 l -0.147 -0.14 c -0.037 -0.036 -4.12 -3.873 -11.326 -7.653 c -6.616 -3.467 -17.305 -7.605 -30.664 -7.605 c -10.038 0 -20.289 2.31 -30.474 6.864 l -12.615 5.644 L 292.562 280 c 0.263 -0.222 6.566 -5.462 17.008 -10.759 c 9.644 -4.894 24.766 -10.728 42.044 -10.728 c 14.159 0 27.706 3.864 40.262 11.48 l 0.115 0.07 l 0.105 0.084 c 0.131 0.107 13.486 10.834 29.116 10.834 c 6.556 0 12.651 -1.889 18.112 -5.617 l 13.676 -9.33 l -11.166 12.22 c -0.205 0.224 -5.098 5.535 -13.298 10.896 c -7.602 4.974 -19.587 10.9 -33.513 10.9 c -9.541 0 -18.845 -2.752 -27.654 -8.18 z m 223.548 7.325 c -8.938 -2.427 -17.791 -3.658 -26.309 -3.658 c -21.304 0 -37.352 7.742 -47.061 14.235 c -10.568 7.067 -16.15 14.239 -16.205 14.31 l -0.123 0.16 l -0.151 0.793 C 488.417 335.852 474.027 342 458.302 342 h -0.004 c -14.99 0 -28.436 -5.758 -37.076 -10.033 c -9.347 -4.623 -15.106 -9.529 -15.345 -9.723 l -12.928 -10.512 l 14.957 7.021 c 5.641 2.682 11.548 4 17.555 4 c 11.938 -0.003 22.447 -5.408 29.163 -9.928 c 7.364 -4.951 11.916 -9.996 11.963 -10.045 l 0.09 -0.105 l 0.103 -0.09 c 18.378 -15.5 39.854 -23.36 63.828 -23.36 c 17.814 0 33.649 4.465 43.8 8.212 c 11.008 4.064 17.729 8.083 18.008 8.253 l 11.841 7.129 l -13.34 -3.624 z" style="stroke: none; stroke-width: 1; stroke-dasharray: none; stroke-linecap: butt; stroke-linejoin: miter; stroke-miterlimit: 10; fill: #ec3b10; fill-rule: nonzero; opacity: 1;" transform=" matrix(0.9999996197549209 0 0 0.9999996197549209 -56.62897846710141 -164.74493735652445) " stroke-linecap="round" />
  <path d="M 524.992 284.937 c -19.979 1.169 -37.497 8.757 -52.07 22.549 c -0.592 0.724 -4.293 5.15 -10.32 9.754 c -5.992 4.575 -15.494 10.164 -26.739 10.824 a 37.858 37.858 0 0 1 -5.042 -0.04 c 0.943 0.441 1.936 1.229 2.978 1.672 c 7.379 3.117 18.754 6.304 31.099 6.304 h 0.002 c 12.791 -1 24.264 -6.236 34.085 -15.641 c 0.753 -1.071 5.314 -7.469 13.885 -13.977 c 5.402 -4.107 11.292 -7.556 17.496 -10.085 a 76.888 76.888 0 0 1 24.602 -5.562 a 84.477 84.477 0 0 1 10.563 0.029 c -1.055 -0.353 -2.16 -0.722 -3.323 -1.074 c -8.729 -2.646 -22.27 -5.628 -37.216 -4.753 z M 299.846 328.317 c -4.137 3.535 -6.231 6.993 -6.683 7.802 c -4.388 5.279 -10.08 7.881 -16.917 7.881 h -0.002 c -2.035 0 -3.981 -0.166 -5.75 -0.523 c 7.54 -2.33 12.175 -9.154 12.813 -10.145 c 6.732 -8.032 15.779 -12.09 26.891 -12.09 c 1.109 0 2.184 0.057 3.216 0.129 a 32.855 32.855 0 0 0 -13.568 6.946 z" style="stroke: none; stroke-width: 1; stroke-dasharray: none; stroke-linecap: butt; stroke-linejoin: miter; stroke-miterlimit: 10; fill: #ec3b10; fill-rule: nonzero; opacity: 1;" transform=" matrix(0.9999996197549209 0 0 0.9999996197549209 -56.62897846710141 -164.74493735652445) " stroke-linecap="round" />
  <path d="M 609.444 166.83 c -79.308 0 -143.599 64.292 -143.599 143.601 s 64.291 143.601 143.599 143.601 c 79.309 0 143.602 -64.292 143.602 -143.601 S 688.753 166.83 609.444 166.83 z" style="stroke: none; stroke-width: 1; stroke-dasharray: none; stroke-linecap: butt; stroke-linejoin: miter; stroke-miterlimit: 10; fill: #ec3c10; fill-rule: nonzero; opacity: 1;" transform=" matrix(0.9999996197549209 0 0 0.9999996197549209 -56.62897846710141 -164.74493735652445) " stroke-linecap="round" />
  <path d="M 609.444 213.031 c -53.789 0 -97.397 43.608 -97.397 97.399 c 0 53.791 43.608 97.398 97.397 97.398 c 53.792 0 97.4 -43.607 97.4 -97.398 c 0.001 -53.791 -43.608 -97.399 -97.4 -97.399 z m 0.24 18.007 c -4.973 69.716 -61.095 31.529 -61.095 31.529 c 28.933 -34.548 61.095 -31.529 61.095 -31.529 z m -64.531 123.889 c -21.765 -37.667 -8.391 -68.24 -8.391 -68.24 c 63.668 28.84 8.391 68.24 8.391 68.24 z m 13.423 15.112 c 50.507 -48.316 66.446 17.668 66.446 17.668 c -48.221 6.324 -66.446 -17.668 -66.446 -17.668 z m 77.507 -133.372 c 41.046 20.584 45.015 51.966 45.015 51.966 c -68.931 11.564 -45.015 -51.966 -45.015 -51.966 z m 11.78 136.102 c -25.824 -64.949 41.316 -54.956 41.316 -54.956 c -10.607 44.099 -41.316 54.956 -41.316 54.956 z" style="stroke: #ec3c10; stroke-width: 1; stroke-dasharray: none; stroke-linecap: butt; stroke-linejoin: miter; stroke-miterlimit: 10; fill: #fffff4; fill-rule: nonzero; opacity: 1;" transform=" matrix(0.9999996197549209 0 0 0.9999996197549209 -56.62897846710141 -164.74493735652445) " stroke-linecap="round" />
  <circle cx="614.4159999999999" cy="286.156" r="6.896" style="stroke: none; stroke-width: 1; stroke-dasharray: none; stroke-linecap: butt; stroke-linejoin: miter; stroke-miterlimit: 10; fill: #ec3c10; fill-rule: nonzero; opacity: 1;" transform="  matrix(0.9999996197549209 0 0 0.9999996197549209 -56.62897846710141 -164.74493735652445) "/>
  <path d="M 614.415 297.207 c -6.09 0 -11.046 -4.955 -11.046 -11.046 c 0 -6.09 4.956 -11.044 11.046 -11.044 c 6.09 0 11.047 4.954 11.047 11.044 c 0 6.091 -4.957 11.046 -11.047 11.046 z m 0 -20.408 c -5.163 0 -9.361 4.201 -9.361 9.361 c 0 5.164 4.198 9.363 9.361 9.363 c 5.162 0 9.361 -4.199 9.361 -9.363 c 0 -5.16 -4.199 -9.361 -9.361 -9.361 z M 641.043 315.518 a 6.898 6.898 0 0 1 -6.897 6.895 a 6.895 6.895 0 0 1 -6.896 -6.895 a 6.896 6.896 0 1 1 13.793 0 z" style="stroke: none; stroke-width: 1; stroke-dasharray: none; stroke-linecap: butt; stroke-linejoin: miter; stroke-miterlimit: 10; fill: #ec3c10; fill-rule: nonzero; opacity: 1;" transform=" matrix(0.9999996197549209 0 0 0.9999996197549209 -56.62897846710141 -164.74493735652445) " stroke-linecap="round" />
  <path d="M 634.146 326.562 c -6.091 0 -11.046 -4.955 -11.046 -11.044 c 0 -6.093 4.955 -11.047 11.046 -11.047 c 6.09 0 11.046 4.954 11.046 11.047 c -0.001 6.088 -4.957 11.044 -11.046 11.044 z m 0 -20.407 c -5.162 0 -9.363 4.2 -9.363 9.362 s 4.201 9.361 9.363 9.361 c 5.163 0 9.36 -4.199 9.36 -9.361 c 0 -5.162 -4.197 -9.362 -9.36 -9.362 z" style="stroke: none; stroke-width: 1; stroke-dasharray: none; stroke-linecap: butt; stroke-linejoin: miter; stroke-miterlimit: 10; fill: #ec3c10; fill-rule: nonzero; opacity: 1;" transform=" matrix(0.9999996197549209 0 0 0.9999996197549209 -56.62897846710141 -164.74493735652445) " stroke-linecap="round" />
  <circle cx="603.586" cy="335.00600000000003" r="6.896" style="stroke: none; stroke-width: 1; stroke-dasharray: none; stroke-linecap: butt; stroke-linejoin: miter; stroke-miterlimit: 10; fill: #ec3c10; fill-rule: nonzero; opacity: 1;" transform="  matrix(0.9999996197549209 0 0 0.9999996197549209 -56.62897846710141 -164.74493735652445) "/>
  <path d="M 603.589 346.052 c -6.093 0 -11.047 -4.955 -11.047 -11.047 c 0 -6.091 4.954 -11.045 11.047 -11.045 c 6.088 0 11.042 4.954 11.042 11.045 c 0 6.092 -4.954 11.047 -11.042 11.047 z m 0 -20.407 c -5.164 0 -9.361 4.199 -9.361 9.36 c 0 5.162 4.197 9.361 9.361 9.361 c 5.161 0 9.361 -4.199 9.361 -9.361 c 0 -5.161 -4.2 -9.36 -9.361 -9.36 z" style="stroke: none; stroke-width: 1; stroke-dasharray: none; stroke-linecap: butt; stroke-linejoin: miter; stroke-miterlimit: 10; fill: #ec3c10; fill-rule: nonzero; opacity: 1;" transform=" matrix(0.9999996197549209 0 0 0.9999996197549209 -56.62897846710141 -164.74493735652445) " stroke-linecap="round" />
  <circle cx="583.3770000000001" cy="306.617" r="6.897" style="stroke: none; stroke-width: 1; stroke-dasharray: none; stroke-linecap: butt; stroke-linejoin: miter; stroke-miterlimit: 10; fill: #ec3c10; fill-rule: nonzero; opacity: 1;" transform="  matrix(0.9999996197549209 0 0 0.9999996197549209 -56.62897846710141 -164.74493735652445) "/>
  <path d="M 583.377 317.658 c -6.092 0 -11.047 -4.953 -11.047 -11.045 c 0 -6.091 4.955 -11.045 11.047 -11.045 c 6.091 0 11.045 4.954 11.045 11.045 c 0 6.092 -4.954 11.045 -11.045 11.045 z m 0 -20.408 c -5.165 0 -9.365 4.201 -9.365 9.363 s 4.2 9.361 9.365 9.361 c 5.161 0 9.362 -4.199 9.362 -9.361 c 0 -5.162 -4.201 -9.363 -9.362 -9.363 z" style="stroke: none; stroke-width: 1; stroke-dasharray: none; stroke-linecap: butt; stroke-linejoin: miter; stroke-miterlimit: 10; fill: #ec3c10; fill-rule: nonzero; opacity: 1;" transform=" matrix(0.9999996197549209 0 0 0.9999996197549209 -56.62897846710141 -164.74493735652445) " stroke-linecap="round" />
</g>
</svg>