<?xml version="1.0" encoding="UTF-8" standalone="no" ?>
<!DOCTYPE svg PUBLIC "-//W3C//DTD SVG 1.1//EN" "http://www.w3.org/Graphics/SVG/1.1/DTD/svg11.dtd">
<svg xmlns="http://www.w3.org/2000/svg" xmlns:xlink="http://www.w3.org/1999/xlink" version="1.1" width="141.38" height="91.39039999999999" xml:space="preserve">
<desc>Created with Fabric.js 1.6.0-rc.1</desc>
<defs></defs>
<g style="stroke: none; stroke-width: 1; stroke-dasharray: none; stroke-linecap: butt; stroke-linejoin: miter; stroke-miterlimit: 10; fill: none; fill-rule: nonzero; opacity: 1;" transform="translate(10.000000000000007 10) scale(0.24 0.24)" >
  <path d="M 529.447 243.141 c 42.598 0 77.256 34.653 77.256 77.253 c 0 42.602 -34.658 77.261 -77.256 77.261 c -42.602 0 -77.258 -34.659 -77.258 -77.261 c 0 -42.6 34.658 -77.253 77.258 -77.253 m 0 -26.286 c -57.186 0 -103.541 46.355 -103.541 103.54 c 0 57.186 46.354 103.54 103.541 103.54 c 57.184 0 103.541 -46.354 103.541 -103.54 c 0 -57.184 -46.358 -103.54 -103.541 -103.54 z" style="stroke: none; stroke-width: 1; stroke-dasharray: none; stroke-linecap: butt; stroke-linejoin: miter; stroke-miterlimit: 10; fill: #f6935d; fill-rule: nonzero; opacity: 1;" transform=" matrix(0.9999987856928715 0 0 0.9999987856928715 -128.2418442748252 -127.46984521227033) " stroke-linecap="round" />
  <circle cx="529.449" cy="320.399" r="27.079" style="stroke: none; stroke-width: 1; stroke-dasharray: none; stroke-linecap: butt; stroke-linejoin: miter; stroke-miterlimit: 10; fill: #ccc0ed; fill-rule: nonzero; opacity: 1;" transform="  matrix(0.9999987856928715 0 0 0.9999987856928715 -128.2418442748252 -127.46984521227033) "/>
  <path d="M 231.782 243.141 c 42.601 0 77.258 34.653 77.258 77.253 c 0 42.602 -34.657 77.261 -77.258 77.261 c -42.598 0 -77.256 -34.659 -77.256 -77.261 c 0 -42.6 34.659 -77.253 77.256 -77.253 m 0 -26.286 c -57.184 0 -103.54 46.355 -103.54 103.54 c 0 57.186 46.356 103.54 103.54 103.54 c 57.186 0 103.541 -46.354 103.541 -103.54 c 0 -57.184 -46.355 -103.54 -103.541 -103.54 z" style="stroke: none; stroke-width: 1; stroke-dasharray: none; stroke-linecap: butt; stroke-linejoin: miter; stroke-miterlimit: 10; fill: #f6935d; fill-rule: nonzero; opacity: 1;" transform=" matrix(0.9999987856928715 0 0 0.9999987856928715 -128.2418442748252 -127.46984521227033) " stroke-linecap="round" />
  <circle cx="231.779" cy="320.399" r="27.079" style="stroke: none; stroke-width: 1; stroke-dasharray: none; stroke-linecap: butt; stroke-linejoin: miter; stroke-miterlimit: 10; fill: #ccc0ed; fill-rule: nonzero; opacity: 1;" transform="  matrix(0.9999987856928715 0 0 0.9999987856928715 -128.2418442748252 -127.46984521227033) "/>
  <path d="M 450.003 159.293 c 0.191 -1.391 0.402 -2.337 0.684 -3.447 c 0.279 -1.067 0.609 -2.107 0.982 -3.136 c 0.75 -2.052 1.723 -4.022 2.855 -5.915 a 36.502 36.502 0 0 1 8.867 -9.962 c 7.168 -5.595 16.072 -8.156 24.494 -8.995 c 4.25 -0.437 8.459 -0.454 12.605 -0.214 c 2.066 0.128 4.127 0.312 6.154 0.586 c 2.422 0.305 4.643 0.848 6.725 1.402 c 8.373 2.303 16.174 6 23.314 10.947 a 78 78 0 0 1 18.676 18.187 c 5.178 7.062 9.223 14.91 12.053 23.039 c 5.709 16.313 7.063 33.302 6.248 49.572 l 0.014 -2.043 l 0.068 1.238 l 0.025 0.883 l 0.016 1.631 a 73.433 73.433 0 0 1 -0.096 3.059 a 78.724 78.724 0 0 1 -0.533 5.83 a 85.484 85.484 0 0 1 -2.197 11.157 c -1.916 7.269 -4.662 14.224 -8.041 20.798 c -6.742 13.193 -16.186 24.604 -26.727 34.234 l 0.887 -0.839 l -0.887 0.878 l -0.639 0.604 l -1.193 1.085 a 77.213 77.213 0 0 1 -2.309 1.943 a 83.661 83.661 0 0 1 -4.611 3.453 c -3.1 2.163 -6.305 4.06 -9.588 5.778 c -6.563 3.421 -13.467 6.057 -20.543 7.928 a 106.603 106.603 0 0 1 -21.527 3.366 c -7.215 0.352 -14.393 0.009 -21.406 -0.921 c -14.043 -1.872 -27.406 -5.937 -39.791 -11.406 c -12.412 -5.448 -23.949 -12.15 -34.797 -19.522 l -0.672 -0.458 l -0.916 -0.769 l -2.87 -2.401 l -3.172 -2.535 a 265.254 265.254 0 0 0 -6.557 -4.978 a 295.753 295.753 0 0 0 -13.614 -9.447 c -9.256 -6.04 -18.736 -11.714 -28.513 -16.628 c -19.482 -9.855 -40.047 -17.27 -60.617 -19.407 c -10.262 -0.997 -20.478 -0.741 -30.297 1.359 a 88.314 88.314 0 0 0 -14.393 4.376 l -1.762 0.707 c -0.465 0.192 -0.973 0.42 -1.48 0.661 a 49.566 49.566 0 0 0 -3.099 1.618 a 58.704 58.704 0 0 0 -6.043 3.941 c -7.857 5.723 -14.186 13.337 -18.264 22.251 c -4.094 8.916 -5.82 19.218 -5.507 29.878 l -0.244 -1.336 c 0.028 0.287 0.216 1.045 0.36 1.598 l 0.509 1.833 c 0.369 1.227 0.79 2.449 1.255 3.649 c 0.935 2.396 2.046 4.708 3.339 6.821 c 2.584 4.232 5.837 7.741 9.926 9.583 c 4.061 1.915 9.104 1.991 14.318 0.741 c 5.226 -1.25 10.415 -3.819 15.419 -6.79 l 2.99 3.915 c -4.476 4.237 -9.532 8.074 -15.561 10.863 c -5.933 2.813 -13.437 4.167 -20.777 2.244 c -7.346 -1.885 -13.49 -6.656 -17.929 -11.98 c -2.247 -2.686 -4.174 -5.543 -5.859 -8.503 a 65.026 65.026 0 0 1 -3.4 -6.899 c -0.345 -0.857 -0.621 -1.517 -0.996 -2.668 l -0.06 -0.184 l -0.184 -1.153 c -1.02 -6.291 -1.48 -12.793 -1.15 -19.395 c 0.353 -6.592 1.525 -13.27 3.615 -19.74 c 4.116 -13.004 12.132 -24.822 22.302 -33.948 a 84.075 84.075 0 0 1 8.106 -6.387 a 73.83 73.83 0 0 1 4.437 -2.848 a 56.63 56.63 0 0 1 2.41 -1.357 l 2.212 -1.135 a 104.256 104.256 0 0 1 18.584 -7.363 c 12.833 -3.723 26.228 -5.128 39.264 -4.531 c 13.055 0.556 25.804 2.809 37.996 6.287 a 226.308 226.308 0 0 1 35.193 13.248 c 11.239 5.312 22.091 11.239 32.478 17.859 a 334.288 334.288 0 0 1 15.31 10.345 a 300.042 300.042 0 0 1 7.471 5.528 l 3.711 2.887 a 164.368 164.368 0 0 1 3.887 3.18 l -1.588 -1.223 c 9.398 6.416 19.154 12.063 29.184 16.477 c 10.029 4.383 20.283 7.711 30.537 9.201 c 10.236 1.496 20.426 1.254 30.047 -0.972 c 4.807 -1.122 9.465 -2.755 13.834 -4.875 a 64.346 64.346 0 0 0 6.27 -3.491 a 47.114 47.114 0 0 0 2.836 -1.931 l 1.252 -0.96 l 0.531 -0.438 l 0.207 -0.17 l 0.063 -0.052 c 0.02 -0.018 0.018 -0.013 -0.121 0.132 l 0.479 -0.5 l 0.406 -0.338 c 8.533 -7.132 15.758 -15.433 21.178 -24.598 c 2.689 -4.588 4.9 -9.418 6.504 -14.366 a 68.178 68.178 0 0 0 1.947 -7.437 a 50.91 50.91 0 0 0 0.594 -3.635 l 0.178 -1.701 l 0.051 -0.753 l 0.02 -0.305 c 0.01 -0.021 0 -0.283 0.025 0.048 l -0.086 -1.137 l 0.102 -0.908 c 1.559 -13.675 1.389 -27.33 -1.875 -39.845 c -3.18 -12.516 -9.68 -23.746 -19.42 -32.14 c -4.842 -4.159 -10.494 -7.671 -16.418 -10.099 c -1.496 -0.597 -2.896 -1.122 -4.195 -1.436 c -1.67 -0.433 -3.338 -0.766 -5.002 -1.119 c -3.33 -0.646 -6.66 -1.079 -9.936 -1.19 c -6.555 -0.262 -12.871 0.852 -18.217 3.772 a 25.106 25.106 0 0 0 -7.135 5.799 a 27.434 27.434 0 0 0 -2.73 3.877 a 25.543 25.543 0 0 0 -1.113 2.107 c -0.324 0.668 -0.65 1.533 -0.824 1.988 l -8.523 -1.512 z" style="stroke: none; stroke-width: 1; stroke-dasharray: none; stroke-linecap: butt; stroke-linejoin: miter; stroke-miterlimit: 10; fill: #a36ecc; fill-rule: nonzero; opacity: 1;" transform=" matrix(0.9999987856928715 0 0 0.9999987856928715 -128.2418442748252 -127.46984521227033) " stroke-linecap="round" />
  <path d="M 464.857 166.631 c 0 -7.064 -5.727 -12.785 -12.787 -12.785 c -7.06 0 -12.787 5.721 -12.787 12.785 c 0 7.059 5.727 12.785 12.787 12.785 c 7.06 0.001 12.787 -5.726 12.787 -12.785 z M 245.562 320.139 c 0 -7.063 -5.727 -12.785 -12.787 -12.785 c -7.061 0 -12.788 5.722 -12.788 12.785 c 0 7.06 5.728 12.785 12.788 12.785 c 7.059 0 12.787 -5.727 12.787 -12.785 z" style="stroke: none; stroke-width: 1; stroke-dasharray: none; stroke-linecap: butt; stroke-linejoin: miter; stroke-miterlimit: 10; fill: #a36ecc; fill-rule: nonzero; opacity: 1;" transform=" matrix(0.9999987856928715 0 0 0.9999987856928715 -128.2418442748252 -127.46984521227033) " stroke-linecap="round" />
  <path d="M 244.146 198.622 s -5.16 31.241 39.912 14.263 c 48.903 -18.418 72.653 -12.628 72.653 -23.026 c 0 -7.878 -10.095 -7.384 -29.215 -8.237 c -19.107 -0.882 -80.104 -6.947 -83.35 17 z" style="stroke: none; stroke-width: 1; stroke-dasharray: none; stroke-linecap: butt; stroke-linejoin: miter; stroke-miterlimit: 10; fill: #ccc0ed; fill-rule: nonzero; opacity: 1;" transform=" matrix(0.9999987856928715 0 0 0.9999987856928715 -128.2418442748252 -127.46984521227033) " stroke-linecap="round" />
</g>
</svg>